<?xml version="1.0" encoding="UTF-8"?>
<svg id="Layer_1" xmlns="http://www.w3.org/2000/svg" version="1.1" viewBox="0 0 110 135">
  <!-- Generator: Adobe Illustrator 30.0.0, SVG Export Plug-In . SVG Version: 2.1.1 Build 123)  -->
  <path d="M81.66,58.85h0c-1.09,2.02-2.24,4.01-3.14,6.16-4.69,13.55-9.74,27.57-17.77,40.03-1.14-4.4-3.04-7.97-6.71-10.45-9.89-6.6-17.08-14.84-22.61-25.62-7.85-12.75-10.02-26.88-5.11-43.23,1.27-4.2,9.75-7.72,12.34-8.14,5.47-1.57,9.04,1.12,12.9,4.7-1.79.25-4.36.25-6.39,1.14-.8.3-1.57.68-2.36,1.02-1.54.75-3.24.86-4.86,1.34-3.51,1.23-6.66,4.2-9.69,6.14-.37.29-.45.28-.6.44-.43.42.02,1.19.59,1.02,1.48-.93,4.1-2.87,5.69-3.96,1.83-1.34,3.78-2.54,6.05-2.86.72-.14,1.46-.29,2.16-.54.68-.23,1.32-.53,1.96-.82,2.77-1.42,6.17-1.74,9.07-1.59.21.54.21,1.2.33,1.84.01.07-.01.13-.09.16-5.58,2.48-10.98,5.29-16.25,8.2-1.04.63-2.03,1.39-2.78,2.36-2.1,3.53-4.54,6.8-7.44,9.71-.63.65.38,1.53.93.8,2.79-2.84,5.34-6.08,7.35-9.59.62-.87,1.46-1.54,2.36-2.11,5.09-2.82,10.32-5.58,15.7-7.95.32-.05.44.23.44.33.15,1.55.34,3.23.36,4.87-2.19,1.8-8.45,5.95-11.04,8.61-5.83,6.39-9.52,14.81-11.33,23.23-.19.72.84,1.12,1.15.41,1.8-8.31,5.34-16.54,11.12-22.85,2.48-2.47,7.87-6.12,10.15-7.88.21,2.14.1,4.33.19,6.47-.05,2.07.28,4.31.14,6.35-3.98,2.8-6.81,6.71-9.68,10.48-1.15,1.59-1.91,3.42-2.63,5.23-1.13,2.9-2.68,5.63-4.67,8.03-.24.25-.25.67.02.9,1.16,1.15,4.82-6.16,5.25-7.2.91-2.12,1.64-4.36,3.02-6.25,2.63-3.36,5.42-7.51,8.89-9.73.19,2.71.67,5.44,1.21,8.07,0,.2.2.48.02.62-.6.37-1.21.77-1.76,1.21-1.82,1.35-2.54,3.54-3.35,5.52-.52,1.18-1.05,2.14-1.67,3.3-1.36,2.55-3.49,6.52-4.73,8.84-.34.69.7,1.27,1.09.56,1.66-3.12,4.14-7.66,5.86-10.98,1.12-2.09,1.53-4.68,3.45-6.19.13-.08,1.5-1.27,1.48-.88.8,3.87,1.09,7.59.24,11.38-.07.43-.12.88-.15,1.32-.04.21-.28.29-.3.52-.24.81-.53,1.61-.86,2.39-1.24,3.05-3.45,5.59-4.55,8.72-.14.65-.79,1.86-.19,2.3.39.27.95-.02.97-.5.42-2.29,1.79-4.37,3.04-6.46.83-1.34,1.53-2.78,2.14-4.21.9,3.37,2.21,7.02,2.88,10.28,0,.48-.6.74-.9,1.07-.65.57-1.09,1.31-1.53,2.02-.48.78-.94,1.5-1.64,1.84-.35.14-.51.59-.29.91,1.38,1.35,3.32-3.07,4.15-3.74.17-.12.35-.38.54-.43,1.14,5.49,1.25,10.29.49,14.31-.09.34.14.73.51.77.34.05.66-.22.7-.56,1.04-4.66.29-11.14-.74-16.35,2.18.43,2.46,2.11,3.21,3.85.29.52.57,1.09,1.05,1.45.41.22.96-.16.88-.63-.16-.5-.64-.86-.82-1.36-.39-.8-.59-1.68-1.07-2.46-.59-.97-1.57-1.68-2.66-1.97-.22-.12-.96-.07-.98-.26-.45-1.84-1.03-3.89-1.66-5.88-.31-.96-.64-1.94-.86-2.93-.02-.09,0-.08.07-.03,2.55,2.16,8.91,8.64,9,11.89,0,.36.34.66.69.61,1.04-.21.38-2.05.09-2.69-1.2-2.23-2.76-4.25-4.39-6.19-1.7-1.97-3.59-3.78-5.62-5.4-.23-.27-.03-1.12-.02-1.48.08-.64.21-1.31.32-1.96.72-3.35-.04-6.98-.35-10.15,6.16,1.14,10.66,9.23,12.03,14.87.12.73,1.28.63,1.21-.15-1.04-4.57-3.43-8.91-6.7-12.28-4.52-4.77-6.94-2.66-7.06-4.57-.62-2.97-1.13-6.01-1.29-9.04,5.91,2.54,12.18,4.32,15.27,10.56.14.34.59.49.9.28.28-.18.36-.56.19-.84-3.27-6.68-10.2-8.69-16.27-11.29-.15-.07-.18-.04-.18-.16-.1-1.93-.15-3.86-.18-5.77,0-1.88-.14-3.82-.08-5.7,2.03.34,3.8,1.1,5.2,2.1,1.82,1.36,3.01,2.96,4.59,4.69,3.67,4.47,8.39,8.73,11.28,13.4.33.58,1.29.18,1.11-.47-.91-1.92-2.28-3.32-3.64-4.89-2.39-2.71-6.2-7.01-8.75-9.89-2.6-3.19-5.4-5.52-9.77-6.21-.2-.04-.1-.29-.13-.44-.03-1.81-.31-3.66-.37-5.35,2.94-.62,6.14.02,8.62,1.71,1.39.95,2.59,2.16,3.77,3.35,1.79,1.82,5.15,5.24,6.94,7.06,2.07,2.13,4.22,4.13,5.63,6.74.14.36.59.54.92.32,1.56-1.75-8.73-10.66-11.53-13.87-4.62-4.94-7.72-7.31-14.57-6.66-.05-.53-.18-1.03-.21-1.53,4.12-1.43,8.51-2.22,12.87-2.59,4.48-.52,6.45.91,9.15,4.02.99,1.08,1.93,2.21,2.84,3.36.43.54,1.32-.05,1.02-.64-1.23-1.68-2.66-3.24-4.1-4.75-1.41-1.53-3.33-2.98-5.54-3.18-5.38-.35-10.8.89-15.94,2.38-.06.02-.09.02-.06-.03.22-.32.41-.66.61-.98,2.62-3.95,9.33-9.25,14.11-7.12,1.38.63,2.55,1.83,3.74,2.84,1.15.99,3.15,2.77,4.42,3.87,2.04,1.85,4.11,3.28,5.57,5.57,4.77,9.93,3.74,22.27-1.63,31.99h0Z"/>
</svg>