<?xml version="1.0" encoding="UTF-8"?>
<svg id="Layer_1" xmlns="http://www.w3.org/2000/svg" version="1.1" viewBox="0 0 52 65">
  <!-- Generator: Adobe Illustrator 30.0.0, SVG Export Plug-In . SVG Version: 2.1.1 Build 123)  -->
  <path d="M26,20.7c-2.9,0-5.3,2.4-5.3,5.3s2.4,5.3,5.3,5.3,5.3-2.4,5.3-5.3-2.4-5.3-5.3-5.3Z"/>
  <path d="M50,26c0-3.1-5-5.2-9.3-6.1,2.5-3.7,4.5-8.7,2.3-10.9-2.4-2.4-8,.4-10.9,2.3-.9-4.3-3-9.3-6.1-9.3s-5.2,5-6.1,9.3c-2.9-1.9-8.5-4.7-10.9-2.3-2.2,2.2-.2,7.2,2.3,10.9-4.3.9-9.3,3-9.3,6.1s5,5.2,9.3,6.1c-2.4,3.7-4.5,8.7-2.3,10.9,2.4,2.4,8-.4,10.9-2.4.9,4.4,3,9.4,6.1,9.4s5.2-5,6.1-9.3c2.9,1.9,8.4,4.8,10.9,2.3,2.2-2.2.2-7.2-2.3-10.9,4.3-.9,9.3-3,9.3-6.1ZM33.7,29.2c1,1.8,1.5,3.8.4,4.9-1.2,1.2-3.4.5-4.9-.4-.6,2-1.6,3.8-3.2,3.8s-2.6-1.8-3.2-3.8c-1.5.8-3.7,1.6-4.9.4-1.1-1.1-.6-3.1.4-4.9-2-.6-3.8-1.6-3.8-3.2s1.8-2.6,3.8-3.2c-1-1.8-1.5-3.8-.4-4.9,1.2-1.3,3.4-.4,4.9.4.6-2,1.6-3.8,3.2-3.8s2.7,1.8,3.2,3.8c1.5-.8,3.7-1.6,4.9-.4,1.1,1.1.6,3.1-.4,4.9,2,.6,3.8,1.6,3.8,3.2s-1.8,2.6-3.8,3.2Z"/>
</svg>