<?xml version="1.0" encoding="UTF-8"?>
<svg id="Layer_1" xmlns="http://www.w3.org/2000/svg" version="1.1" viewBox="0 0 110 135">
  <!-- Generator: Adobe Illustrator 30.0.0, SVG Export Plug-In . SVG Version: 2.1.1 Build 123)  -->
  <defs>
    <style>
      .st0 {
        fill-rule: evenodd;
      }
    </style>
  </defs>
  <path class="st0" d="M53.73,73.59c-2.88,9.26-11.62,32.32-25.19,23.01-7.18-4.93-1.38-16.52-1.38-16.52,0,0-18.78,3.89-20.93-5.05-4.08-16.98,20.34-17.6,33.67-16.71-11.55-2.95-27.68-9.64-21.43-23.45,3.61-7.98,18.05-1.55,18.05-1.55,0,0-5.93-18.19,4.82-20.36,16.02-3.23,17.85,15.81,17.17,29.59,2.14-10.7,7.85-26.1,22.86-20.76,8.16,2.91,1.95,16.5,1.95,16.5,0,0,18.61-4.54,21.06,4.34,4.26,15.38-15.03,18.23-28.28,18.43,11.82,3.13,25.16,9.57,22.12,22.48-1.92,8.15-19.15,1.86-19.15,1.86,0,0,6.84,18.35-1.79,20.99-16.21,4.95-21.75-19.17-23.57-32.79h0ZM47.22,61.77c-6.23-.3-18.41.2-17.6,8.79.41,4.45,10.01,1.08,10.01,1.08,0,0-3.72,6.39-.52,8.4,5.5,3.47,10.4-7.11,12.61-12.96-.71-.32-1.39-.75-2.02-1.29-1.25-1.09-2.07-2.5-2.48-4.02h0ZM57.66,67.4c.93,6.44,3.66,17.58,11.28,15.33,4.09-1.21.78-9.86.78-9.86,0,0,8.21,3.02,9.1-.81,1.69-7.31-8.75-9.59-15.24-10.3-.38,1.04-.96,2.04-1.74,2.93-1.16,1.33-2.62,2.24-4.18,2.72h0ZM63.87,56.65c5.59.09,20.64-.52,19.37-9.68-.6-4.34-9.9-.8-9.9-.8,0,0,3.9-7.3.15-8.23-7.75-1.93-11.57,8.59-12.99,13.91.3.2.58.41.85.65,1.29,1.13,2.12,2.58,2.52,4.15h0ZM54.32,50.64c1.04-6.79,2.1-21.02-7.73-18.6-5.6,1.38-2.95,10.73-2.95,10.73,0,0-7.3-3.03-9.34,1.21-4.1,8.52,7.64,11.42,13.27,12.31.38-.96.93-1.87,1.65-2.7,1.4-1.59,3.22-2.59,5.11-2.95h0Z"/>
</svg>