<?xml version="1.0" encoding="UTF-8"?>
<svg id="Layer_1" xmlns="http://www.w3.org/2000/svg" version="1.1" viewBox="0 0 110 135">
  <!-- Generator: Adobe Illustrator 30.0.0, SVG Export Plug-In . SVG Version: 2.1.1 Build 123)  -->
  <defs>
    <style>
      .st0 {
        fill-rule: evenodd;
      }
    </style>
  </defs>
  <path class="st0" d="M42.33,61.83c-7.26.5-28.11,1.45-36.41-3.35-2.39-1.39,1.15-2.5,1.46-4.98.39-3.11-1.36-5.18,3.06-5.42,9.99-.55,26.59,4.37,33.25,6.5.11-.21.23-.42.35-.62-6.56-4.14-23.85-15.63-28.71-24.4-1.8-3.24.73-1.28,3.5-3.27,1.53-1.09,1.35-5.22,4.27-3.41,8.72,5.41,21.6,20.6,26.19,26.2.33-.16.66-.31,1-.44-1.82-6.81-6.45-25.57-4.89-34.88.52-3.08,1.99.54,4.2.3,2.18-.23,3.54-4.43,4.77-1.93,4.11,8.33,3.68,28.25,3.33,36.02.26.07.52.14.77.21,2.34-7.19,8.77-25.53,15.96-33.9,2.96-3.44,1.16,2.32,4.14,3.71,2.6,1.21,7.66-3.1,6.42,1.08-3.2,10.78-15.78,27.97-20.15,33.74.16.22.31.45.45.68,5.84-3.78,23.38-14.64,33.39-15.73,3.34-.36.95,2.54,1.91,4.96.84,2.1,4.69,1.99,2.49,3.96-7.53,6.74-28.77,12.31-35.84,14.03-.01.27-.03.55-.05.82,7.1.91,28.81,4.21,36.06,11.26,1.86,1.8-2.22,3.89-2.44,4.92-.34,1.59,1,5.29-3.05,4.84-9.95-1.11-26.57-10.32-33.31-14.26-.32.4-.67.78-1.03,1.14,4.23,6.5,14.06,22.3,15.94,31.82.7,3.52-2.02.85-4.19,1.86-2.31,1.06-2.32,5.12-4.56,2.48-6.34-7.48-11.89-25.89-13.81-32.78-.37.06-.74.11-1.12.14-1.08,7.05-4.28,25.65-9.21,34.7-1.86,3.41-2.68-1-5-1.42-2.93-.53-5.11,2.65-4.83-1.96.63-10.2,7.06-26.85,10.09-34.22-.32-.27-.63-.56-.92-.86-4.72,5.26-15.24,16.28-23.38,19.84-3.97,1.73-1.91-2.17-3.8-5.51-1.48-2.62-5.91-1.59-3.48-4.41,6.16-7.14,21.32-14.1,27.25-16.64-.04-.27-.08-.54-.11-.81h0ZM57.71,61.75c-.42,0-.76.33-.76.74s.34.74.76.74.76-.33.76-.74-.34-.74-.76-.74ZM58.47,58.53c-.42,0-.76.33-.76.74s.34.74.76.74.76-.33.76-.74-.34-.74-.76-.74ZM49.22,55.9c-.42,0-.76.33-.76.74s.34.74.76.74.76-.33.76-.74-.34-.74-.76-.74ZM53.22,61.75c-.42,0-.76.33-.76.74s.34.74.76.74.76-.33.76-.74-.34-.74-.76-.74ZM54.74,58.59c-.42,0-.76.33-.76.74s.34.74.76.74.76-.33.76-.74-.34-.74-.76-.74ZM52.7,53.07c-.42,0-.76.33-.76.74s.34.74.76.74.76-.33.76-.74-.34-.74-.76-.74ZM54.74,55.16c-.42,0-.76.33-.76.74s.34.74.76.74.76-.33.76-.74-.34-.74-.76-.74ZM56.95,53.49c-.42,0-.76.33-.76.74s.34.74.76.74.76-.33.76-.74-.34-.74-.76-.74ZM60.34,56.64c-.42,0-.76.33-.76.74s.34.74.76.74.76-.33.76-.74-.34-.74-.76-.74ZM61.1,60.75c-.42,0-.76.33-.76.74s.34.74.76.74.76-.33.76-.74-.34-.74-.76-.74ZM58.65,64.42c-.42,0-.76.33-.76.74s.34.74.76.74.76-.33.76-.74-.34-.74-.76-.74ZM54.49,65.9c-.42,0-.76.33-.76.74s.34.74.76.74.76-.33.76-.74-.34-.74-.76-.74ZM50.79,64.42c-.42,0-.76.33-.76.74s.34.74.76.74.76-.33.76-.74-.34-.74-.76-.74ZM48.51,61.15c-.42,0-.76.33-.76.74s.34.74.76.74.76-.33.76-.74-.34-.74-.76-.74ZM51.18,58.91c-.42,0-.76.33-.76.74s.34.74.76.74.76-.33.76-.74-.34-.74-.76-.74Z"/>
</svg>