<?xml version="1.0" encoding="UTF-8"?>
<svg id="Layer_1" xmlns="http://www.w3.org/2000/svg" version="1.1" viewBox="0 0 110 135">
  <!-- Generator: Adobe Illustrator 30.0.0, SVG Export Plug-In . SVG Version: 2.1.1 Build 123)  -->
  <defs>
    <style>
      .st0 {
        fill-rule: evenodd;
      }
    </style>
  </defs>
  <path class="st0" d="M33.11,45.68c-.46-.36-.9-.75-1.32-1.15-1.07-1.01-2.04-2.13-2.88-3.31-1.99-2.79-2.99-5.74-3.39-8.78-.59-4.46.12-9.13.9-13.78.21-1.25.09-3.17.28-4.79.1-.89.29-1.7.62-2.3.23-.43.62-.65,1.13-.68.76-.05,2,.59,2.42.78,1.2.52,2.43.97,3.68,1.37,1.26.4,2.54.75,3.81,1.09,1.66.43,3.39.79,5.04,1.33,1.16.38,2.27.86,3.3,1.51,3.6,2.26,6.4,5.79,8.38,9.74,1.25,2.48,2.16,5.13,2.74,7.72.41-2.09.85-4.53,1.08-6.41.4-3.23,2.4-6.25,5.12-8.65,2.56-2.26,5.76-3.96,8.77-4.77,1.18-.32,2.39-.46,3.59-.5,1.71-.07,3.44.05,5.16.09,1.17.02,2.39-.08,3.58-.08.57,0,1.13.02,1.68.08.92.1,1.46.59,1.79,1.25.41.85.27,2.23.23,3.04-.1,1.84-.22,3.7-.38,5.55-.14,1.85-.32,3.7-.5,5.53-.17,1.72-.37,3.43-.75,5.11-.26,1.16-.6,2.3-1.06,3.41-1.36,3.26-3.44,5.91-5.98,7.93,1.66.09,3.31.35,4.93.86,4.1,1.29,6.57,3.39,8.34,5.94,2.53,3.66,3.46,8.33,6.14,12.73.43.7.9,1.37,1.4,2,.52.66,1.07,1.3,1.64,1.93.25.28,1.08,1.1,1.28,1.72.2.62.11,1.18-.24,1.65-.26.35-.69.68-1.26.92-1.02.43-2.68.6-3.38.82-1.36.44-2.68.95-3.99,1.5-2.02.85-3.99,1.78-6.02,2.63-2.31.98-4.7,1.68-7.11,1.9-2.46.22-4.95-.05-7.4-1.03-2.07-.83-3.85-1.98-5.44-3.34-1.24-1.06-2.36-2.25-3.41-3.53.18.6.33,1.14.4,1.51.45,2.29.8,4.63.96,6.97.16,2.36.14,4.74-.18,7.1-.36,2.71-1.27,5.1-2.53,7.29-1.85,3.22-4.46,6.01-7.18,8.78-.53.54-2.25,2.55-3.53,3.5-.73.54-1.43.72-1.89.66-.36-.06-.7-.23-1-.52-.48-.47-.84-1.42-1.1-1.86-.39-.66-.83-1.29-1.32-1.89-.48-.59-1.02-1.15-1.59-1.65-1.57-1.39-3.19-2.68-4.62-4.15-1.01-1.04-1.92-2.16-2.67-3.47-2.81-4.89-3.32-10.07-2.27-15.02.49-2.3,1.32-4.55,2.42-6.7-2.61,1.39-5.38,2.47-8.23,3.04-3.36.68-6.83.64-10.28-.36-1.23-.37-2.41-.82-3.57-1.33-2.58-1.13-5.04-2.53-7.62-3.7-.56-.26-2.38-.69-3.39-1.23-.69-.37-1.13-.85-1.31-1.27-.21-.51-.21-1.19.3-1.85.39-.51,1.34-1.14,1.57-1.33.91-.75,1.76-1.57,2.55-2.45.8-.88,1.54-1.8,2.23-2.77,1.77-2.5,3.07-5.38,4.84-7.9.82-1.16,1.72-2.25,2.8-3.21,2.1-1.87,4.73-2.82,7.55-3.17,1.99-.25,4.07-.2,6.1,0h0ZM50.96,47.47v-.02c-.55.58-1.01,1.5-1.42,2.46-.7,1.66-1.16,3.46-1.13,3.99.04,1.3.55,2.27,1.22,3.08.36.44.75.87,1.22,1.21.51.37,1.03.73,1.63.97,1.25.51,2.65.86,3.99.72,1.41-.15,2.66-.81,3.58-1.61.93-.84,1.32-1.91,1.45-3.04.09-.76-.02-1.54-.16-2.33-.36-2.06-1.23-4.21-2.76-5.61-.65-.59-1.36-1.09-2.16-1.36-1.7-.55-3.63-.14-5.46,1.54h0Z"/>
</svg>