<?xml version="1.0" encoding="UTF-8"?>
<svg id="Layer_1" xmlns="http://www.w3.org/2000/svg" version="1.1" viewBox="0 0 110 135">
  <!-- Generator: Adobe Illustrator 30.0.0, SVG Export Plug-In . SVG Version: 2.1.1 Build 123)  -->
  <defs>
    <style>
      .st0 {
        fill-rule: evenodd;
      }
    </style>
  </defs>
  <path class="st0" d="M48.57,68.24c-11.02,7.68-34.09,21.76-41.43,10.74-2.33-3.5,11.71-5.38,11.53-5.64-.54-.8-12.43.83-12.53-5.12-.08-4.32,10.93-2.34,11.02-3.01.18-1.39-12.31-6.28-11.08-10.31,1.18-3.88,19.55-3,33.69-.08-11.84-5.96-26.5-15.47-22.24-24.37,1.6-3.34,10.16,7.64,12.83,5.35,2.67-2.3-9.66-12.35-3.58-14.48,3.4-1.2,9.68,9.73,12.28,8.48,2.6-1.26-2.24-16.81,3.6-15.23,6.12,1.66,12.62,17.94,14.6,30.77,1.24-12.41,4.58-33.25,12.95-30.66,5.16,1.6.38,11.38,2.41,14.5,1.9,2.93,12.22-9.87,16-4.8,2.12,2.84-5.81,6.47-3.86,8.55,1.96,2.08,15.7-1.93,15.61,3.93-.12,8.66-15.77,14.9-28.62,18.09,12.23-.27,31.68.61,32.34,8.79.34,4.18-15.39,5.83-15.41,6.14-.06.96,13.63,1.55,10.23,6.32-2.47,3.46-9,2.02-9.46,2.5-.95.99,12.46,8.67,6.6,10.17-10.26,2.62-27.04-13.78-33.87-25.03,5.66,10.25,17.37,33.67,9.11,38.46-3.72,2.16-9.84-8.43-10.14-8.3-.91.38,4.57,12.52-1.36,11.7-4.3-.59-5.26-10.82-5.91-11.01-1.34-.38-3.92,13.32-10.81,10.96-8.76-3-1.76-24.1,5.49-37.39h0ZM50.74,58.75c-9.34-1.84-25-5.78-25.69-3.38-.74,2.61,7.36,5.62,7.25,6.52-.05.43-5.24-.68-5.14,2.1.14,3.83,5.86,2.61,6.21,3.12.12.17-8.02,1.16-7.35,3.77,1.71,6.73,19.18-3.72,26.5-8.93-.96-.82-1.62-1.94-1.79-3.2h0ZM52.74,62.12c-4.54,8.75-11.88,24.22-6.31,26.02,4.46,1.44,8.99-7.91,9.86-7.68.42.11-.58,5.36,2.2,5.7,3.83.46,1.88-5.97,2.47-6.23.19-.09,2.44,8.46,4.81,7.04,4.89-2.96-1.2-17.72-5.11-25.06-1.06.93-2.5,1.49-4.08,1.49-1.46,0-2.8-.48-3.84-1.29h0ZM60.8,61.79c5.6,7.3,20.57,18.25,25.41,14.2,4.01-3.35-7.82-5.58-7.21-6.23.29-.31,4.51.54,6.05-1.71,2.14-3.11-6.68-3.34-6.66-3.95.01-.2,10.12-1.44,9.85-4.13-.5-4.95-17.32-3.4-25.89-2.94.07.34.11.69.11,1.05,0,1.44-.63,2.75-1.66,3.71h0ZM62.26,56.69c8.61-2.54,23.57-8.77,23.38-12.32-.2-3.74-8.93-2.72-10.22-4.04-1.29-1.32,2.04-2.59.64-4.39-2.49-3.23-7.24,3.98-8.5,2.11-1.34-1.99,1.61-8.34-1.73-9.32-5.42-1.57-7.57,15.99-8.21,24-1.43-8.24-5.55-22.76-9.52-23.76-3.77-.95-.47,9.01-2.13,9.85-1.66.84-5.83-6.13-8-5.32-3.89,1.44,4.17,7.78,2.48,9.29-1.69,1.51-7.33-5.47-8.32-3.3-2.5,5.49,10.66,14.78,18.58,18.87,0-.1-.01-.2-.01-.3,0-2.95,2.64-5.34,5.89-5.34,2.72,0,5.01,1.68,5.68,3.95h0Z"/>
</svg>