<?xml version="1.0" encoding="UTF-8"?>
<svg id="Layer_1" xmlns="http://www.w3.org/2000/svg" version="1.1" viewBox="0 0 110 135">
  <!-- Generator: Adobe Illustrator 30.0.0, SVG Export Plug-In . SVG Version: 2.1.1 Build 123)  -->
  <path d="M101.78,66.15c-.64-.88-.53-2.1-.86-3.1-.3-.69-1.16-1.41-1.25-1.96-.1-.53-.34-1.15-.86-1.55-1.05-.81-1.82-1.62-2.77-2.33-1.05-.85-2.68-1.3-3.52-2.37-.46-.93.35-2.27.74-2.96.24-.42.23-.71-.17-.95-.97-.51-2.51-.36-3.4-.61-1.03-.26-2.44.47-3.58.52-3-.43-6.46.06-9.13-.79-.71-.31-1.6-.53-2.14-1.07-.28-.31-.33-.74-.22-1.28.55-3.29,2.88-6,4.11-9.05,1.92-4.62,2.23-9.86-.18-14.16-.82-1.08-.74-3.04-1.8-3.61-1-.52-2.57.07-2.88,1.27-.46,2.25,2.24,3.51,3.17,5.13,1.71,3.25.58,8.34-2.07,12.48-.14.09-.24-.03-.31-.3-.22-1.36-.5-2.83-1.23-4.04-.75-1.34-1.91-2.15-2.44-3.46-.29-.56-.37-1.54-.99-1.77-.95,0-1.57,3.12-2.66,1.71-.95-1.17-2.46-3.11-3.62-3.62-.62-.29-1.13-.75-1.61-1.27-.44-.46-.84-.59-1.15-.36-.48.43-1.12.47-1.73.1-.91-.46-2.32-1.52-3.2-1.23-.9.3-2.42-.84-3.32-1.38-3.12-2.2-1.14,1.55-1.25,3.16.07.56.25,1.16.2,1.61-.05.62-.36.96-.4,1.57-.04,1.94.57,4.09,1.07,5.65.11,1.27-1.67.86-2.56.55-1.48-.52-2.23-2.23-3.74-2.57-1.15-.17-2.34-1.07-3.43-.78-.91.03-1.88-.92-2.74-1.07-.96-.14-1.34.45-2.43-.07-.87-.29-1.82-.94-2.72-.9-.67.2-.31,1.11-.16,1.67.33,1.12.86,2.3-.14,2.38-.52.06-1.12-.06-1.66,0-1.08.14-1.91.6-2.88.34-1.55-.34-.53.69-1.05,1.38-.66.51-1.86.91-2.78,1.09-3.3.4-6.8,1.83-9.3,4.1-.2.22-.34.43-.36.61,0,1.43,6.64-.74,7.93-.39,1.1.01,1.48.73,2.72.95.78.15,1.65.14,2.41.23.91.13,1.67,1.02,2.72,1.17,1.79.21,3.15,1.23,4.94,1.32,1.67-.12,2.54,1.42,4.1,1.88,4.1.92,8.35,1.57,12.43,2.7,1.38.35.91.82-.05,1.15-3.58,1.27-7.46,1.73-11.23,1.99-1.75.12-3.15-.97-4.5-1.51-.95.13-.31,1.61-.91,2.06-1.11.36-3.08.16-4.54.39-1.07.17-1.5.81-2.77.99-1.05.18-1.82.39-3.02.47-.59.01-2.36.17-1.34.84,3.46,1.07,7.46,1,10.22,3.59.84.84,2.16,1.86,2.18,3.11-.75,2.04-3.21,1.75-5.01,2.47-.86.41-1.81.87-2.66,1.23-.35.19-.5.33-.54.65.05.47-.31.73-.79.84-1.45.38-3.03.77-4.35,1.52-.3.19-.56.48-.41.81.98,1.16,2.98,1.67,4.2,2.64.28.19.54.49.53.8-.07,1.32-2.3,1.69-2.95,2.82-.9,1.08-.39,2.7-1.31,3.73-.57.63-1.32,1.1-1.91,1.71-.76.77-1.14,1.67-1.96,2.2-3.59,1.92-7.61,2.98-11.6,3.72-1.59.27-1.35,1.11.1,1.6,5.34,2.16,10.93-.94,16.38-.08.7.14,1.23.71,1.96,1.03.68.28,1.45.21,2.13-.05,1.84-.49,5.55-4.23,6.75-1.36.5.87,1.28,1.91,2.32,2.04,1.53.13,3.09-.8,4.35-1.55.59-.35.9.27,1.49.05,1.61-.92,2.92-3.2,4.96-3.22,2.91,1.41,3.47,6.22,4.28,9.34.72,2.97,2.46-1.57,3.67-1.59.97-.23,1.58-1.85,2.27-2.59.59-.56,1.29-.27,1.93-.85.91-.9,1.74-2.29,2.15-3.54.16-.44.37-1.05.95-.85,3.46,1.98,1.89-.43,2.98-2.51,1.13-2.28-.77-5.21-.35-7.62.13-.93.61-1.72,1.2-2.5,1.32-1.48,2.11,1.34,2.52,2.32.29.79.56,1.63,1.06,2.32.66,1.06,2.13,1.29,2.8,2.17.78,1.21,1.07,2.71,1.89,3.93.86,1.49,2.25,3.06,2.52,4.73.11,1.02.73,1.66,1.25,2.51.73,1.62,1.18,3.55,1.53,5.33.1.54.47,1.39,1,.79,1.25-1.77,2.15-4.22,2.8-6.3.11-.54.5-.93.8-1.25.21-.26.33-.63.36-1.01.09-1.03.16-2.51,1.1-2.54.4.02.84.32,1.23.37.6.04.38-.79.31-1.19-.19-.71-.14-1.14.1-1.43,1.07-1.63-1.01-3.91,2.64-2.74,3.52,1.4,2.07-.6,1.75-2.9-.17-1.34.91-2.44.2-3.77-1.22-3.33-5.56-4.88-6.34-8.36-.58-2.83,4.56-3.45,6.34-2.66,1.09.39,2.11,1.23,3.24,1.47.98.21.98-.68,1.65-.32.48.22,1.18.88,1.79,1.38.57.5,1.14.77,1.29.44.18-.55-.12-1.14-.39-1.62l-.15-.26h.02ZM97.71,63.01c-.09.59-1.67-.38-2.05-.6-4.87-2.74-7.95-3.11-12.31-5.2-3.58-1.61-6.84-3.96-9.97-5.35-.3-.1-.35.02-.24.33,1.55,3.25,3.29,8.12,4.41,11.84.34,2.41,2.82,3.35,4.52,4.74,3.65,2.79,7.07,6.16,9.66,9.88.25.33.58.96.52,1.25-.18.39-.84-.37-1.05-.64-3.52-4.9-7.46-8.46-11.48-11.18-.63-.45-1.07-.44-.89.45.74,4.1,2.16,7.8,3.13,11.91.86,3.86,1.3,7.85,1.33,11.8,0,.25,0,.23-.01.75-.02.48-.16.86-.31.92-.35.08-.46-.71-.48-1.05-.03-5.11-.57-11-2.64-16.94-1.02-2.68-3.89,1.31-5.02,2.35-.19.21-.66.59-.83.41-.09-.14.08-.6.43-1.08,1.16-1.52,2.75-2.81,3.84-3.39.54-.26.87-.69.72-1.31-.34-1.93-1.32-5.74-2.07-8.22-.55-1.82-2.3-7.49-4.33-11.72-.5-1.1-1.12-1.45-1.91-.37-2.06,2.6-4.54,5.22-6.96,7.61-.54.54-.7,1.23-.29,1.88,1.05,1.86,3.05,4.43,2.89,6.91-.07.11-.18.09-.31-.04-1.04-2.03-1.79-4.53-3.13-6.18-.46-.7-1.18-.68-1.77-.13-1.48,1.38-3.31,2.76-4.7,4.06-.57.62-.35,1.44-.07,2.18,1.43,3.95,1.51,8.53,1.17,12.96-.37,3.98-1.05,8.02-2.34,12.24-.36.86-.76.85-.64-.31,2.49-10.48,3.2-17,1.33-23.65-.31-1.36-.78-2.57-2.23-1.33-3.68,2.95-7.88,4.98-11.2,7.91-.25.44-.27,1.02-.23,1.54.27,3.78-.52,7.88-2.09,11.39-1.11,2.06-1.14.37-.52-.86,1.55-3.81,2.02-6.97,1.81-10.15-.01-1.14-.79-1.08-1.56-.56-2.25,1.38-4.37,2.66-6.5,3.89-.63.36-1.14.87-1.34,1.58-.41,2.3-1.12,4.71-2.73,6.45-.5.5-.94.36-.39-.63.96-1.54,1.88-3.09,2.11-4.84.02-.27.05-.64-.21-.77-.97-.14-2.13.87-3.08,1.23-4.25,2.14-9.61,4.67-14.06,5.08-.71.05-1.26-.39-.36-.7,9.19-1.84,17.5-6.18,28.68-13.9.19-.4-.3-.65-.64-.8-4.01-1.89-8.98-2.63-14.52-3.39-.72-.34.07-.56.52-.57,2.86.07,5.71.58,8.45,1.25,2.8.52,5.23,2.02,7.75,2.48,3.08-1.23,6.16-3.99,9.18-5.93,1.07-.81,2.46-1.86,3.52-2.76.59-.51.74-.93,0-1.31-6.38-3.06-13.63-5.02-23.17-6.97-1.04-.4-.59-.72.21-.66,6.53,1.02,12.96,2.81,19.04,5.08,1.87.54,3.7,1.9,5.6,2.1.42-.05.81-.32,1.15-.61,1.86-1.62,3.65-3.24,5.58-5.23.29-.33.57-.75.49-1.17-.07-.37-.37-.69-.67-.95-2.2-1.94-5.04-3.48-7.35-4.04-.73-.42.25-.64.67-.55,3.18.4,5.71,3.16,8.29,4.62.38.05.74-.22,1.02-.5,1.51-1.63,3.11-3.51,4.39-5.35.25-.37.56-.95.05-1.15-1.48-.54-6.2-1.16-9.08-1.71-3.02-.85-5.22-1.63-9.42-2.66-1.11-.3-2.18-.14-3.11.47-2.25,1.16-4.86,1.89-7.35,1.72-.98-.25.33-.71.83-.73.83.05,8.64-1.54,5.5-2.48-9.87-2.37-21.23-3.48-27.52-2.22-.35.04-.96.17-1.09-.13-.04-.33.84-.64,1.25-.68,7.62-1.34,17.01-.01,25.47,1.78,2.64.66-1.09-1.92-1.6-2.51-2.16-1.98-4.95-3.68-7.52-5.43-.48-.51-.05-.61.49-.42,3.1,1.45,5.96,3.88,8.63,6.19,1.28,1.04,2.21,2.4,3.78,2.96,2.82.84,5.93,1.56,7.97,2.2.21.02.62.22.71.05-1.07-1.61-3.08-3.02-4.52-4.64-.57-.6-.79-1.19-.38-1.11.33.07.85.46,1.17.76,2.1,1.98,4.38,4.4,5.54,5.41.79.65,1.88.79,2.9.96,2.66.36,5.13.85,6.68,1.19.23.02.58.14.6-.14-5.07-7.98-12.38-15.39-17.83-20.97-.28-.3-.84-.94-.55-1.19.13-.09.44.01.73.25,3.46,3.29,9.86,10.26,13.25,14.52,1.05,1.13,1.86,2.71,3.01,3.58.21-.03.16-.49.16-.72-.12-2.16-.36-5.27-.6-7.83-.06-.95-.42-2.57.25-2.32.22.19.41.86.47,1.59.5,3.98.57,9.25.91,11,.36.88,1.36,1.82,1.62,2.76.2.88-.39,1.7.16,2.11,2.01,1.05,4.45,2.63,6.62,3.39,3.24.25,7.61-1.12,10.29-1.97.99-.42,1.71.09.07.81-2.52.96-5.25,1.45-7.91,1.9-.61.11-.98.2-.95.34,1.7,1.18,4.92,2.32,7.15,3.23,2.35.92,6.5,2.05,9.32,4.45l.09.18h0Z"/>
</svg>